<?xml version="1.0" encoding="iso-8859-1"?>
<!-- Generator: Adobe Illustrator 19.0.0, SVG Export Plug-In . SVG Version: 6.00 Build 0)  -->
<svg version="1.1" id="Layer_1" xmlns="http://www.w3.org/2000/svg" xmlns:xlink="http://www.w3.org/1999/xlink" x="0px" y="0px"
	 viewBox="0 0 512 512" style="enable-background:new 0 0 512 512;" xml:space="preserve">
<rect x="49.291" y="94.308" style="fill:#C4AB63;" width="97.76" height="408.057"/>
<rect x="147.039" y="94.308" style="fill:#E0C46A;" width="315.674" height="408.057"/>
<g>
	<path style="fill:#F97177;" d="M329.015,268.717c0-29.391,20.236-53.216,45.198-53.216c31.203,0,56.499,29.782,56.499,66.52
		c0,45.922-54.42,90.819-101.697,114.988c-47.277-24.169-101.697-69.066-101.697-114.988c0-36.738,25.295-66.52,56.499-66.52
		C308.779,215.501,329.015,239.326,329.015,268.717z"/>
	<path style="fill:#F97177;" d="M259.324,326.582c0-19.105,13.155-34.593,29.382-34.593c20.284,0,36.727,19.36,36.727,43.241
		c0,29.852-35.376,59.037-66.108,74.748c-30.732-15.711-66.108-44.897-66.108-74.748c0-23.882,16.443-43.241,36.727-43.241
		C246.171,291.988,259.324,307.476,259.324,326.582z"/>
</g>
<path d="M324.859,388.446c-4.733,2.419-6.608,8.218-4.189,12.951c1.702,3.33,5.077,5.246,8.577,5.245
	c1.473,0,2.971-0.34,4.373-1.056c49.332-25.22,106.941-72.713,106.941-123.558c0-41.986-29.662-76.145-66.122-76.145
	c-18.736,0-35.307,10.83-45.2,27.312c-9.893-16.482-26.464-27.312-45.2-27.312c-29.347,0-54.778,21.687-63.28,53.966
	c-1.354,5.14,1.714,10.405,6.855,11.759c5.14,1.354,10.405-1.716,11.759-6.857c6.242-23.697,24.192-39.62,44.666-39.62
	c19.616,0,35.575,19.556,35.575,43.592c0,5.315,4.308,9.625,9.625,9.625s9.625-4.309,9.625-9.625
	c0-24.036,15.959-43.592,35.575-43.592c25.846,0,46.873,25.523,46.873,56.895C421.313,321.477,372.869,363.901,324.859,388.446z"/>
<path d="M183.592,335.235c0,34.573,38.437,66.491,71.352,83.318c1.376,0.703,2.878,1.055,4.381,1.055
	c1.503,0,3.005-0.352,4.381-1.055c32.915-16.828,71.353-48.745,71.353-83.318c0-29.151-20.793-52.866-46.352-52.866
	c-11.707,0-22.225,5.876-29.382,15.164c-7.156-9.288-17.675-15.164-29.382-15.164C204.385,282.369,183.592,306.085,183.592,335.235z
	 M229.944,301.618c10.894,0,19.757,11.2,19.757,24.969c0,5.315,4.309,9.625,9.625,9.625c5.317,0,9.625-4.309,9.625-9.625
	c0-13.768,8.862-24.969,19.757-24.969c14.945,0,27.103,15.08,27.103,33.617c0,22.894-28.494,48.507-56.485,63.857
	c-27.99-15.351-56.484-40.964-56.484-63.857C202.841,316.699,214.999,301.618,229.944,301.618z"/>
<path d="M462.714,445.629c-5.317,0-9.625,4.309-9.625,9.625v37.497h-222.75c-5.315,0-9.625,4.309-9.625,9.625
	s4.309,9.625,9.625,9.625h232.375c5.317,0,9.625-4.309,9.625-9.625v-47.122C472.338,449.938,468.03,445.629,462.714,445.629z"/>
<path d="M462.714,84.689h-80.838v-8.667C381.876,34.103,347.768,0,305.842,0c-18.074,0-35.146,6.327-48.603,17.533
	C243.783,6.325,226.71,0,208.639,0c-41.918,0-76.021,34.103-76.021,76.021v8.667H49.286c-5.315,0-9.625,4.309-9.625,9.625v77.978
	c0,5.315,4.309,9.625,9.625,9.625s9.625-4.309,9.625-9.625v-68.354h78.508v388.813H58.911v-289.02c0-5.315-4.309-9.625-9.625-9.625
	s-9.625,4.309-9.625,9.625v298.645c0,5.315,4.309,9.625,9.625,9.625h148.971c5.315,0,9.625-4.309,9.625-9.625
	s-4.309-9.625-9.625-9.625h-41.59V103.938h73.139v57.744c0,5.315,4.309,9.625,9.625,9.625s9.625-4.309,9.625-9.625v-57.744h113.57
	v57.744c0,5.315,4.308,9.625,9.625,9.625c5.317,0,9.625-4.309,9.625-9.625v-57.744h71.213V422.53c0,5.315,4.308,9.625,9.625,9.625
	c5.317,0,9.625-4.309,9.625-9.625V94.313C472.338,88.998,468.03,84.689,462.714,84.689z M151.865,84.689v-8.667
	c0-31.304,25.468-56.772,56.772-56.772c13.124,0,25.539,4.476,35.457,12.422c-0.74,1.032-1.464,2.078-2.157,3.152
	c-7.936,12.268-12.131,26.514-12.131,41.198v8.667C229.806,84.689,151.865,84.689,151.865,84.689z M249.057,76.021
	c0-10.415,2.826-20.525,8.183-29.358c5.355,8.826,8.182,18.939,8.182,29.358v8.667h-16.366V76.021z M284.672,84.689v-8.667
	c0-14.685-4.195-28.93-12.124-41.189c-0.696-1.078-1.421-2.126-2.164-3.161c9.918-7.946,22.333-12.422,35.458-12.422
	c31.311,0,56.785,25.468,56.785,56.772v8.667H284.672z"/>
<g>
</g>
<g>
</g>
<g>
</g>
<g>
</g>
<g>
</g>
<g>
</g>
<g>
</g>
<g>
</g>
<g>
</g>
<g>
</g>
<g>
</g>
<g>
</g>
<g>
</g>
<g>
</g>
<g>
</g>
</svg>
